#!OML:ASF I:\Actors\actors\Patient Classification 2\Patient 1\Session 1\actor1.ASF
:FULLY-SPECIFIED
:DEGREES
1026
root 0.475509 18.6894 5.40501 4.02535 -0.338935 -0.647286
lowerback 25.1125 0.885361 -5.07906
upperback 8.63885 0.226642 4.33393
thorax -4.37884 -0.00460008 7.64142
lowerneck -20.0917 -1.11474 -3.77941
upperneck 20.349 -0.203188 -0.678171
head 9.78981 -0.473208 0.357631
rclavicle 1.51076e-014 9.54166e-015
rhumerus -17.8189 75.6505 -113.411
rradius 107.436
rwrist -41.0208
rhand 23.4849 -35.4946
rfingers 7.12502
rthumb 47.7666 -57.8156
lclavicle 1.51076e-014 9.54166e-015
lhumerus -43.6914 -65.0669 147.021
lradius 124.471
lwrist 42.0899
lhand 2.75393 341.723
lfingers 7.12502
lthumb 28.2254 9.61755
rfemur 3.05983 1.9768 10.7094
rtibia 1.27222e-014
rfoot -16.4586 -15.4706
rtoes -9.56514
lfemur -15.0778 3.00026 -17.1592
ltibia 29.905
lfoot -18.0824 2.55005
ltoes -55.551
1027
root 0.469047 18.6779 5.40587 3.95741 -0.211694 -0.552901
lowerback 24.6501 0.735006 -4.71052
upperback 8.87088 0.115787 4.06833
thorax -3.88418 -0.0752272 7.14066
lowerneck -20.1115 -1.17262 -3.78692
upperneck 20.2297 -0.358442 -0.362059
head 9.75283 -0.506008 0.447728
rclavicle -1.31198e-014 3.29983e-014
rhumerus -16.2294 76.612 -111.927
rradius 107.225
rwrist -41.4449
rhand 24.2147 -35.3599
rfingers 7.12502
rthumb 48.4392 -57.3651
lclavicle -1.31198e-014 3.29983e-014
lhumerus -43.7973 -65.2366 146.755
lradius 124.436
lwrist 42.7428
lhand 2.74944 343.068
lfingers 7.12502
lthumb 28.2211 10.9631
rfemur 3.15554 1.85646 10.6358
rtibia -7.95139e-015
rfoot -16.5702 -15.4561
rtoes -9.65035
lfemur -15.1133 3.00611 -17.2245
ltibia 30.0633
lfoot -18.0833 2.38057
ltoes -55.4937
1028
root 0.45761 18.6726 5.40633 3.93808 -0.102672 -0.501693
lowerback 21.6297 -0.995056 2.01194
upperback 10.9483 -0.936816 -0.777372
thorax -0.208726 -0.363971 -1.77163
lowerneck -21.5697 -1.23245 -1.05251
upperneck 19.1614 -2.09829 3.10511
head 9.67461 -0.679003 0.957043
rclavicle 5.96354e-016 -7.95139e-016
rhumerus -0.934624 74.6028 -103.5
rradius 106.095
rwrist -41.7181
rhand 25.0482 -35.5175
rfingers 7.12502
rthumb 49.2054 -57.1476
lclavicle 5.96354e-016 -7.95139e-016
lhumerus -46.4485 -69.6647 142.437
lradius 125.207
lwrist 44.1821
lhand 2.70148 344.35
lfingers 7.12502
lthumb 28.1753 12.2521
rfemur 3.18953 1.74871 10.6289
rtibia 3.18055e-015
rfoot -16.6301 -15.5122
rtoes -9.44149
lfemur -15.171 3.0557 -17.2224
ltibia 30.158
lfoot -17.9917 2.16739
ltoes -55.4576
1029
root 0.442774 18.675 5.40878 3.92215 -0.0825878 -0.471886
lowerback 21.5146 -0.951716 2.01702
upperback 10.9757 -0.881397 -0.740226
thorax -0.11901 -0.335989 -1.74773
lowerneck -21.727 -1.30154 -1.13292
upperneck 19.4024 -2.18524 3.15093
head 9.79183 -0.715837 0.974499
rclavicle -9.93923e-017 4.77083e-015
rhumerus -1.36 75.2133 -103.613
rradius 105.897
rwrist -42.2914
rhand 26.3486 -36.1903
rfingers 7.12502
rthumb 50.3964 -57.2024
lclavicle -9.93923e-017 4.77083e-015
lhumerus -47.025 -69.3815 142.904
lradius 125.29
lwrist 44.5359
lhand 2.90941 345.187
lfingers 7.12502
lthumb 28.374 13.057
rfemur 3.19577 1.72888 10.6426
rtibia -1.11319e-014
rfoot -16.5596 -15.6047
rtoes -9.15147
lfemur -15.1626 3.18575 -17.1879
ltibia 30.1631
lfoot -17.8677 2.04618
ltoes -55.5362
1030
root 0.423354 18.6825 5.41357 3.83151 -0.133698 -0.450029
lowerback 21.477 -0.895434 1.9977
upperback 11.0353 -0.813336 -0.71903
thorax -0.0316818 -0.302171 -1.72911
lowerneck -21.9022 -1.35832 -1.20584
upperneck 19.6727 -2.26384 3.21847
head 9.92339 -0.745101 0.999633
rclavicle 3.67752e-015 6.95746e-016
rhumerus -2.07766 75.6556 -104.141
rradius 105.65
rwrist -42.8285
rhand 27.8674 -36.8033
rfingers 7.12502
rthumb 51.7798 -57.0389
lclavicle 3.67752e-015 6.95746e-016
lhumerus -47.4406 -69.1143 143.195
lradius 125.393
lwrist 44.9448
lhand 3.34669 345.832
lfingers 7.12502
lthumb 28.7918 13.6318
rfemur 3.27574 1.79245 10.6754
rtibia 6.36111e-015
rfoot -16.4069 -15.7356
rtoes -9.22337
lfemur -14.9953 3.36596 -17.1245
ltibia 30.0697
lfoot -17.6844 1.98334
ltoes -55.6166
1031
root 0.399009 18.6936 5.4204 3.69339 -0.180586 -0.436747
lowerback 21.5107 -0.818289 1.94594
upperback 11.0953 -0.722196 -0.676144
thorax 0.0220405 -0.259201 -1.67321
lowerneck -22.1144 -1.41461 -1.18435
upperneck 20.0253 -2.35872 3.21655
head 10.0902 -0.781594 0.982473
rclavicle 4.96962e-016 1.88845e-015
rhumerus -2.86058 75.5593 -104.759
rradius 105.704
rwrist -43.8127
rhand 29.1221 -38.9804
rfingers 7.12502
rthumb 52.916 -58.5258
lclavicle 4.96962e-016 1.88845e-015
lhumerus -47.859 -68.9095 143.514
lradius 125.492
lwrist 45.4374
lhand 4.00154 346.252
lfingers 7.12502
lthumb 29.4172 13.9429
rfemur 3.43119 1.86149 10.7409
rtibia -1.59028e-015
rfoot -16.2015 -15.8282
rtoes -9.46182
lfemur -14.7173 3.46132 -17.0259
ltibia 29.8939
lfoot -17.4819 1.95124
ltoes -55.6171
1032
root 0.371973 18.7064 5.42877 3.60618 -0.194349 -0.430783
lowerback 21.4834 -0.727051 1.87706
upperback 11.119 -0.615473 -0.581918
thorax 0.067112 -0.211167 -1.5562
lowerneck -22.2431 -1.46593 -1.13587
upperneck 20.3882 -2.44128 3.15289
head 10.2448 -0.818365 0.94072
rclavicle 3.57812e-015 -2.5842e-015
rhumerus -3.90037 75.6139 -105.503
rradius 105.645
rwrist -43.496
rhand 29.0975 -38.4492
rfingers 7.12502
rthumb 52.8937 -58.0086
lclavicle 3.57812e-015 -2.5842e-015
lhumerus -48.3452 -68.7841 143.91
lradius 125.64
lwrist 45.7132
lhand 4.77229 346.495
lfingers 7.12502
lthumb 30.1528 14.0541
rfemur 3.55742 1.89074 10.8162
rtibia 1.59028e-015
rfoot -16.1111 -15.7651
rtoes -8.98696
lfemur -14.4591 3.43167 -16.9167
ltibia 29.6682
lfoot -17.3429 1.982
ltoes -55.6737
1033
root 0.341833 18.7189 5.43559 3.54998 -0.148814 -0.432545
lowerback 21.4387 -0.692378 1.86465
upperback 11.1215 -0.571283 -0.490982
thorax 0.0944163 -0.192077 -1.46164
lowerneck -22.3493 -1.50697 -1.19983
upperneck 20.7578 -2.49591 3.1838
head 10.4008 -0.83973 0.955359
rclavicle -6.4605e-016 -3.08116e-015
rhumerus -4.53043 75.4552 -105.991
rradius 105.701
rwrist -43.3582
rhand 29.2091 -38.0154
rfingers 7.12502
rthumb 52.9945 -57.5113
lclavicle -6.4605e-016 -3.08116e-015
lhumerus -48.5081 -68.7635 143.964
lradius 125.777
lwrist 45.7335
lhand 5.23699 346.555
lfingers 7.12502
lthumb 30.596 14.0324
rfemur 3.65951 1.85662 10.9149
rtibia 3.18055e-015
rfoot -16.0618 -15.7246
rtoes -8.98961
lfemur -14.2446 3.34543 -16.7939
ltibia 29.4258
lfoot -17.1949 2.01832
ltoes -55.7808
1034
root 0.306774 18.7308 5.43961 3.51591 -0.0707307 -0.429778
lowerback 21.4296 -0.69867 1.86491
upperback 11.0778 -0.577318 -0.441154
thorax 0.0512173 -0.197138 -1.40732
lowerneck -22.4236 -1.52993 -1.25341
upperneck 21.1573 -2.54106 3.2559
head 10.5631 -0.850793 0.984837
rclavicle 5.06901e-015 8.94531e-016
rhumerus -4.93957 75.3148 -106.441
rradius 105.64
rwrist -43.1699
rhand 29.6492 -36.9461
rfingers 7.12502
rthumb 53.3913 -56.1875
lclavicle 5.06901e-015 8.94531e-016
lhumerus -48.4771 -68.8388 143.786
lradius 125.88
lwrist 45.7914
lhand 5.29153 346.603
lfingers 7.12502
lthumb 30.648 14.0714
rfemur 3.72265 1.78512 11.0327
rtibia 1.59028e-015
rfoot -16.0338 -15.7282
rtoes -9.27504
lfemur -14.0813 3.26538 -16.6595
ltibia 29.1989
lfoot -17.036 2.05552
ltoes -55.8707
1035
root 0.267033 18.739 5.44309 3.52118 0.00564474 -0.427836
lowerback 21.3607 -0.676443 1.81379
upperback 11.0143 -0.556701 -0.383849
thorax 0.017087 -0.191326 -1.32164
lowerneck -22.3846 -1.56173 -1.20537
upperneck 21.4364 -2.60991 3.24979
head 10.6593 -0.876322 0.965509
rclavicle 2.93207e-015 -4.47266e-016
rhumerus -5.05578 75.1332 -106.612
rradius 105.67
rwrist -43.14
rhand 29.9888 -37.1743
rfingers 7.12502
rthumb 53.6969 -56.2153
lclavicle 2.93207e-015 -4.47266e-016
lhumerus -48.4349 -69.0078 143.656
lradius 125.985
lwrist 45.9418
lhand 5.29448 346.764
lfingers 7.12502
lthumb 30.6508 14.2319
rfemur 3.74335 1.70889 11.1567
rtibia 1.11319e-014
rfoot -16.146 -15.603
rtoes -8.67536
lfemur -13.9677 3.1446 -16.5136
ltibia 29.0062
lfoot -16.9573 2.13491
ltoes -56.0232
1036
root 0.223424 18.7405 5.44748 3.53548 0.0796974 -0.411641
lowerback 21.2265 -0.64378 1.7348
upperback 10.9742 -0.528633 -0.311644
thorax 0.0412819 -0.182675 -1.20625
lowerneck -22.3775 -1.62284 -1.20917
upperneck 21.6465 -2.69742 3.23686
head 10.7374 -0.915794 0.948856
rclavicle 1.36664e-015 2.48481e-016
rhumerus -4.49035 75.0403 -106.038
rradius 105.702
rwrist -43.3801
rhand 30.3596 -37.8849
rfingers 7.12502
rthumb 54.03 -56.7026
lclavicle 1.36664e-015 2.48481e-016
lhumerus -48.2624 -69.1881 143.471
lradius 126.081
lwrist 45.9775
lhand 5.44834 346.896
lfingers 7.12502
lthumb 30.7975 14.3362
rfemur 3.78155 1.63393 11.2785
rtibia -1.11319e-014
rfoot -16.2296 -15.4403
rtoes -8.46562
lfemur -13.8722 2.98328 -16.3762
ltibia 28.8494
lfoot -16.9669 2.21656
ltoes -56.2092
1037
root 0.177129 18.7359 5.4508 3.57201 0.157781 -0.348724
lowerback 21.0872 -0.636444 1.66872
upperback 10.916 -0.531848 -0.288231
thorax 0.0469776 -0.18777 -1.14366
lowerneck -22.5002 -1.68055 -1.28845
upperneck 21.9427 -2.77391 3.28881
head 10.8736 -0.946058 0.969785
rclavicle 1.73937e-016 4.96962e-016
rhumerus -3.66272 74.8085 -105.27
rradius 105.854
rwrist -44.3429
rhand 31.26 -39.4879
rfingers 7.12502
rthumb 54.836 -57.7445
lclavicle 1.73937e-016 4.96962e-016
lhumerus -48.1352 -69.3124 143.256
lradius 126.179
lwrist 45.8659
lhand 5.65254 346.824
lfingers 7.12502
lthumb 30.9922 14.2274
rfemur 3.79673 1.54849 11.3769
rtibia 7.95139e-015
rfoot -16.2472 -15.3711
rtoes -9.24079
lfemur -13.8283 2.85107 -16.2867
ltibia 28.7277
lfoot -17.0323 2.26458
ltoes -56.302
1038
root 0.127105 18.7272 5.45262 3.59587 0.226353 -0.242884
lowerback 20.9944 -0.63024 1.59843
upperback 10.8484 -0.537319 -0.309768
thorax 0.0190565 -0.193033 -1.1258
lowerneck -22.6674 -1.73845 -1.39019
upperneck 22.1925 -2.86208 3.41832
head 11.0041 -0.97351 1.02045
rclavicle -5.71506e-016 2.45996e-015
rhumerus -3.17603 74.797 -104.802
rradius 105.975
rwrist -44.6301
rhand 31.346 -39.5153
rfingers 7.12502
rthumb 54.9128 -57.7168
lclavicle -5.71506e-016 2.45996e-015
lhumerus -48.1077 -69.3994 143.101
lradius 126.275
lwrist 45.7935
lhand 5.90402 346.626
lfingers 7.12502
lthumb 31.2319 13.9827
rfemur 3.80695 1.47075 11.4549
rtibia 3.18055e-015
rfoot -16.4021 -15.297
rtoes -9.82924
lfemur -13.8018 2.73244 -16.2374
ltibia 28.6387
lfoot -17.1167 2.34399
ltoes -56.3432
1039
root 0.0736025 18.7167 5.45299 3.57801 0.285835 -0.127206
lowerback 20.9542 -0.624219 1.54778
upperback 10.8033 -0.539316 -0.353466
thorax -0.0103896 -0.194919 -1.14316
lowerneck -22.787 -1.79824 -1.5084
upperneck 22.2905 -2.9502 3.57795
head 11.0705 -1.00051 1.08433
rclavicle 1.49089e-015 1.83876e-015
rhumerus -2.90259 74.9048 -104.478
rradius 106.077
rwrist -44.4649
rhand 31.5099 -39.6666
rfingers 7.12502
rthumb 55.0591 -57.7625
lclavicle 1.49089e-015 1.83876e-015
lhumerus -48.237 -69.4244 143.12
lradius 126.346
lwrist 45.776
lhand 6.02631 346.373
lfingers 7.12502
lthumb 31.3484 13.7076
rfemur 3.84408 1.40681 11.5363
rtibia -1.59028e-014
rfoot -16.6417 -15.1821
rtoes -10.0928
lfemur -13.7636 2.58308 -16.1877
ltibia 28.5773
lfoot -17.1848 2.47158
ltoes -56.4111
